<svg id="Layer_1" data-name="Layer 1" xmlns="http://www.w3.org/2000/svg" xmlns:xlink="http://www.w3.org/1999/xlink" viewBox="0 0 250 100"><defs><clipPath id="clip-path"><rect x="96.72" y="5.99" width="68.33" height="47.15" style="fill:none"/></clipPath><clipPath id="clip-path-3"><rect x="39.15" y="5.99" width="197.41" height="82.57" style="fill:none"/></clipPath></defs><title>250x100</title><path d="M39.15,49.72l3.38-2.32s1.62-1.41,1.62.42V68.44l-2.74,3V51.77a2,2,0,0,0-2.25-2Z" style="fill:#1d1d1b"/><polygon points="43.99 59.13 43.99 61.85 43.06 61.85 43.06 59.23 43.99 59.13 43.99 59.13 43.99 59.13" style="fill:#1d1d1b"/><g style="clip-path:url(#clip-path)"><path d="M100.24,42.19c-.34.44-1.68,1.62-2,2s-.49.68-.78,1.07-.41.75-.72,1.25,2.86.65,3.11.65.78-2.24.78-2.24l-.4-2.74Z" style="fill:#4a4a49"/></g><path d="M111.54,32.7c-2,1.56-8.88,6.34-9.27,7.12-.55,1.11-2,1.91-2.11,2.34a11.36,11.36,0,0,0,.33,2.93c0,.2,3.19-4.23,3.84-4.55s4.49-2.15,5.53-3.38A23.32,23.32,0,0,1,114,34.26c.78-.39,3.54-1,4.52-1.76s-5.59-1.63-6.11-1.37-.85,1.56-.85,1.56Z" style="fill:#4a4a49"/><path d="M115.54,31.2c-.23,0-3.11.56-3.11.56l1.08-.09c-4.55,5.48-9.21,7.75-9.81,8.5s-3.14,4.06-3.11,4.41,3.95-4.27,3.44-3.9,5.8-3.22,7.15-4.6a43.24,43.24,0,0,1,4.92-2.83c.79-.37,1.81-.6,2.14-.84s-.37-.46-1.16-.79a6.7,6.7,0,0,0-1.53-.42Z" style="fill:#4a4a49"/><path d="M111.47,32.59c-2,1.56-8.88,6.34-9.27,7.12-.55,1.11-2,1.91-2.11,2.34a11.36,11.36,0,0,0,.33,2.93c0,.2,3.19-3.92,3.84-4.24s4.52-2.44,5.56-3.68a22.12,22.12,0,0,1,4.08-2.73c.78-.39,3.55-1.22,4.53-1.93s-5.59-1.63-6.11-1.37-.85,1.56-.85,1.56Z" style="fill:#4a4a49"/><path d="M126.73,18.69c1.27,3.07,4.63,12.36,4,14.41-6.8,1-9.3-.75-10.93-.46" style="fill:#4a4a49"/><path d="M123.92,25.35l-2.83,7.32c-4.8.49-8.1-2-7.86-5.55" style="fill:#575756"/><path d="M130.45,32.65c3.83-.92,4.52-1.38,5.38-1.94,1.56-1-4.23-6.28-4.23-6.28" style="fill:#ea5157"/><path d="M130.45,32.65a23.05,23.05,0,0,1-5,.25" style="fill:#4a4a49"/><path d="M122.63,32.44A6.44,6.44,0,0,1,116.19,26" style="fill:#639087"/><path d="M136.06,31.28c.12-.49-1.53,2.85,4.13,9.94a33.22,33.22,0,0,0-4.67,6.46c-.27.59,5.33-3.54,7.11-4.6a1.74,1.74,0,0,0,.69-.66c.22-.34.22-.36.22-.53,0-.41-2.24-4.17-1.08-6.79.71-1.6-3.43-6.75-3.43-6.75l-3,2.93Z" style="fill:#878787"/><path d="M145.36,32.78c4.88-3.51,2.37-9.48.2-10.23l-5.12.18c2.76,1.88,5.48,8.68,4.93,10Z" style="fill:#4a605c"/><path d="M138.53,28.86l-1.6,1.76a17.87,17.87,0,0,0,5.65,9.28c-.78-3.61-.44-4,0-4.91s-4.05-6.14-4.05-6.14Z" style="fill:#878787"/><path d="M138,23.81l3.26-.64c-.24,4.83.21,7.41,3.71,9.89l-.41.25-.63.33-1.48,1c-2.8-2.24-3.39-2.77-4.07-5.13a20,20,0,0,1-.37-5.69Z" style="fill:#00594d"/><polygon points="133.9 50.45 135.17 48.27 135.48 47.65 141.21 43.87 138.92 46.06 137.01 48.46 136.49 49.48 133.9 50.45 133.9 50.45" style="fill:#878787"/><path d="M142.34,34.77,145,33.15c2.5,1.92,6.31,5.65,7.88,6.07.65,3.25,2.1,9,3.86,10.32a6.84,6.84,0,0,0-1.78,3.61c0-4.38-2.91-12.7-12.57-18.37Z" style="fill:#4a4a49"/><path d="M148.29,29.89c-.79,1.47-3.1,2.89-3.57,3.23,1.21,1,5.23,4.32,5.71,4.65-.85-1.6-2.15-7.88-2.15-7.88Z" style="fill:#4a4a49"/><path d="M156.3,50.06c-1.42-1.47-.75-.85-2-3-.15-.57-.47-1.05-.67-1.62-.3-.88-.53-1.51-.76-2.39-.15-.61-.32-1.36-.5-2-.06-.23-.1-.46-.16-.69a3.63,3.63,0,0,1-1.48-1.27,15.32,15.32,0,0,1-2-4.42c-.18-.57-.32-1.07-.5-1.64a8.23,8.23,0,0,1-.28-2.21c0-.49.34-.87.53-1.3L148,30.64c.11-.4,0-.82.12-1.23l.5-1.14a4.46,4.46,0,0,1-.66,2.54c.17-.36.18-.64.35-1,.06.61.25,1.14.37,1.74s.4,1.33.6,2a14.65,14.65,0,0,0,2,4.42,3.64,3.64,0,0,0,1.48,1.27c.06.23.1.46.16.69.16.59.14,1.16.29,1.74.23.86.32,1.7.57,2.57a16.49,16.49,0,0,0,1,2.67c1.25,2.11.78,1.58,1.76,2.56" style="fill:#4a4a49"/><g style="clip-path:url(#clip-path)"><path d="M148.11,30.75a4.49,4.49,0,0,1-4.75-4.6c0-2.73,1.51-2,4.24-2l.76,3-.25,3.55Z" style="fill:#00594d"/><path d="M147,23c6.17-.37,7.8,1,12.84,8.27,3.76,5.44,4.37,6.63,4.74,7.27.57,1.85.12,1.88.48,2.79-2.33-3.7-5.41-5.84-10.32-8.13-6.16-2.88-5.77-7-6.31-8.46A3.6,3.6,0,0,0,147,23Z" style="fill:#878787"/></g><path d="M147.35,23.82c.17.07.79-.25,1,.74s.49,3.14,1.33,4a18.45,18.45,0,0,0,5.07,3.62c3,1.73,6,3.4,8.36,6.28.8,1,1.06.23,1.6,1,.16.25.17,1.64.3,1.81l0,0a18.14,18.14,0,0,0-2.29-2.49c-1.69-1.8-4-2.89-6.16-4.1-.83-.46-1.51-.9-2.29-1.4a18.34,18.34,0,0,1-3-2.33,22.18,22.18,0,0,1-2.07-2.12c-.62-.81-.48-1.54-.71-2.46l-1.13-2.67Z" style="fill:#878787"/><path d="M146.7,23.86c.28.13,0,.52.33.63a8.32,8.32,0,0,1,5,.61,17.61,17.61,0,0,1,4,3.28c1.13,1.11,2,2.53,3.91,4.58,1.12,1.65,3.57,4.35,4.62,5.65l-1.09-2.79c-1.12-1.39-1.48-2.44-2.48-3.92-1.45-1.56-2.48-3.53-4-5.08a17.71,17.71,0,0,0-4-3.28c-1.48-.8-4.8-.73-6.42-.52" style="fill:#4a4a49"/><path d="M136.95,19.56a14.52,14.52,0,0,1,2.14-.24c.69,0,.74-.12,1.43-.12,1.79,0,4.24,1.55,5.6,2.78l.22.19c.09.08.64.89.7,1h-.59a14.74,14.74,0,0,0-2.08-1.69c-1.4-.77-2.81-1.62-4.1-1.59a5.44,5.44,0,0,0-1.78.22c-1.11.26-1.1.24-1.83.37l.29-.91Z" style="fill:#4a4a49"/><path d="M127.39,18.49a14.66,14.66,0,0,0,2,.84,25.15,25.15,0,0,0,3.08.4,40,40,0,0,0,5-.2l-.44,1a38.27,38.27,0,0,1-8-.46,10.34,10.34,0,0,1-1.78-.54" style="fill:#00594d"/><path d="M123.1,33.21c6-7.8,15.15-21.83,24.4-8.9-9-1-15.69.9-24.4,8.9Z" style="fill:#4a4a49"/><path d="M125.54,32.93c.06-.15-5.6-.15-5.54-.3" style="fill:#00594d"/><path d="M113.18,27.24c-.3.72-1.69.68-3.34.63s-3.44.13-6.38,2.82a19.84,19.84,0,0,0-2.27,2c-.34.34-1.17,1.1-.84.91A21.14,21.14,0,0,1,104,32.8c.39-.1,2-2.22,8-.65a12.72,12.72,0,0,0,4.36-.94c.53-.24-3.15-4-3.15-4Z" style="fill:#878787"/><path d="M104,13.5A30.88,30.88,0,0,1,100.81,18c-.2.17-1.7,1.36,1.87,3.15,1-1.72,2-2.47,2.94-2.66s1.56.73,3.84-2.82-4.7-4.07-4.7-4.07" style="fill:#4a4a49"/><path d="M122.65,15a11.91,11.91,0,0,0,4.5,3.64c1.26,3.06,4.62,12.31,4,14.36-6.77,1-9.27-.75-10.89-.45-1.17.21,2.4-17.54,2.4-17.54Z" style="fill:#4a4a49"/><path d="M109.83,15.39c1.85,1.9,5.06,6.22,3.36,11.86,2.71-3.84,5.62-7.64,7.37-7.64.44,0-5.91-7.37-12.24-7.82-.37,0,1.66,3.56,1.51,3.6Z" style="fill:#878787"/><path d="M121.34,32.69c-4.79.49-8.31-2.24-8.07-5.77a7.37,7.37,0,0,1,7.7-7.19l3.39,5.56-3,7.41Z" style="fill:#4a4a49"/><path d="M106.26,18.15a3.26,3.26,0,1,1,3.51-2.84,3.2,3.2,0,0,1-3.51,2.84Z" style="fill:#4a4a49"/><path d="M123.55,15.6c-.36-.64,4.28,4.41,4.81,5.56s3,7.07,2.43,11.48a22.31,22.31,0,0,1-4.92.24c.51-6.34-.6-14.2-2.32-17.28Z" style="fill:#4a4a49"/><path d="M104.21,13a3.48,3.48,0,0,0-.68,1.61A3.09,3.09,0,0,0,106,18.12a3.81,3.81,0,0,0,3.39-1.92,4.79,4.79,0,0,1-.84.07A4.53,4.53,0,0,1,104.21,13Z" style="fill:#a8a8a7"/><path d="M109.9,14.59c2.58.28,6.24,4,5.25,7.2,2-1.78,3.14-1.66,4.76-2,.48-.1-4.84-5.52-10.87-7.23-.76-.21.78.44.86,2Z" style="fill:#878787"/><path d="M123.07,32.36a6.42,6.42,0,0,1,0-12.83" style="fill:#a8a8a7"/><path d="M106.31,6.22,107.57,8C122,8.17,130.2,19.2,120.45,32.55c3.52-9.33-1-20.23-15.74-20.74l.58-1.6.44-1.46,0-1.51.57-1Z" style="fill:#4a4a49"/><path d="M105.78,7.54,106,7l.35-.52.57.79.55.72.47.21c13.32-.17,23.79,12.6,18.07,24.62.06-.15-5.55-.08-5.49-.23,3.63-9.26,3.51-21.73-14.73-23.71l0-1.36Z" style="fill:#4a4a49"/><path d="M102.7,21.16c.19-.51,1.52-3.11,3.65-3.16a3.27,3.27,0,0,0,3.36-3.57c.39,1.4.3,3.5-3,4.18a3.66,3.66,0,0,0-2.42.77,9.88,9.88,0,0,0-1.58,1.79Z" style="fill:#4a4a49"/><path d="M109.84,15.1c0,.24-.09.91-.12,1,2.73,3,4,5.1,3.82,8.73a13.08,13.08,0,0,0-.43,2.59h.13a9,9,0,0,1,.49-2.58c.14-2.61-.87-7.26-3.89-9.72Z" style="fill:#4a4a49"/><path d="M106.31,6a2.42,2.42,0,0,0-.58,1.45,4.25,4.25,0,0,1-.1,1.26c-.13.39-1.35,4.06-1.43,4.24s1-.84,1-.84l-.36-.54.91-2.8.08-1.4.53-.92,0-.44Z" style="fill:#4a4a49"/><path d="M137.3,19.93c-4.72.48-8.91.47-12.24-2.55,4.21,5.07,6.19,10.58,5.79,15.72,1.71-.46,5.78-1.21,7-3.26" style="fill:#878787"/><path d="M113.22,27.75c0,.67.66,1.87.43,1.9-3.41.34-8-1.23-11.39,3.38l-2,.46,4.63-3.94,3.36-1.6,3,.12,1.44-.23.55-.09Z" style="fill:#878787"/><path d="M107.38,8c.75.11,2,0,2.8,0s1.55,0,2.34.16a10.18,10.18,0,0,1,2.23.6c1.08.41,1.81.72,2.87,1.22a14.33,14.33,0,0,1,3.71,2.67c.32.29.76.94,1.06,1.26a22.35,22.35,0,0,0,2.67,2.74c.51.37,1.27.91,2,1.33a4.75,4.75,0,0,0,.79.45,14.45,14.45,0,0,0,2.07.72,26.9,26.9,0,0,0,3.05.31,42.28,42.28,0,0,0,5.13-.22l-.6,1.23a38.14,38.14,0,0,1-7.95-.46,10.31,10.31,0,0,1-1.77-.53,20.94,20.94,0,0,1-2.55-1.4,3,3,0,0,1-.61-.47c-1-.83-1.81-1.65-2.76-2.49-.33-.29-.53-.67-.85-1-1.17-1.08-2.45-1.89-3.68-2.83a17.87,17.87,0,0,0-5.3-2,21.29,21.29,0,0,0-4.13-.16,1.3,1.3,0,0,1-.58-.13L107.38,8Z" style="fill:#4a4a49"/><path d="M98.48,36.48c1-.13,3.92-.36,4.09-.91.24-.78.53-2.62,1.65-3.72s-4,1.29-4,1.29c-.26.44-1.51,2.65-1.82,3.2" style="fill:#878787"/><path d="M98.48,36.57c1-.13,3.92-.36,4.09-.91.24-.78.53-2.63,1.65-3.72s-4,1.29-4,1.29c-.26.44-1.51,2.65-1.82,3.2" style="fill:#878787"/><path d="M105.73,29.08c-1.08.66.29-.45-2.46,1.71a19.84,19.84,0,0,0-2.27,2c-.34.34-1.17,1.1-.84.91a21.14,21.14,0,0,1,3.66-.78c.39-.1.72-.54,1.13-.92" style="fill:#878787"/><path d="M105.33,30.56c-.78.57,0-.7-3.25,2.55l-2,.46,4.63-3.94,2.19-1" style="fill:#878787"/><path d="M137.51,24.13c-.41,3.5-.93,7,4.9,10.68,4.74-2.3,8-4.36,5.25-10.83-3.71-1.22-9-.93-10.15.15Z" style="fill:#4a4a49"/><path d="M140.16,24.3c-.66,2.85-1.1,5.77,2.87,9.26.65-.27,1.25-.54,1.78-.82C148,31.08,149,29,147.37,23.87c-2.85-1.15-6.31-.58-7.21.43Z" style="fill:#639087"/><path d="M148.11,32.18c-3,3.5-7.3-2-6.18-6.06s3-2.5,5.61-2.94l.85,3.8-.28,5.19Z" style="fill:#4a4a49"/><path d="M125.25,33c5.65-9.54,14.66-19.65,21.8-8.51-7.47-.76-13.28-.85-21.8,8.51Z" style="fill:#4a4a49"/><path d="M145.25,24.34a17,17,0,0,1,2.59.09,7.77,7.77,0,0,1,.5,5.7c.16.71.21,1,.32,1.36-1.38-.18-4.42-.3-4.73-3.52a4.49,4.49,0,0,1,1.32-3.62Z" style="fill:#a8a8a7"/><path d="M148.34,30.15c-.49.91-3.31-.35-3.59-.14a58.15,58.15,0,0,0,4.88,4.71c-.39-1-1.29-4.57-1.29-4.57Z" style="fill:#a8a8a7"/><path d="M139.86,23.48l3.66.18s.23,4.2.23,4.38,1.08,3.66,1.08,3.66l.77,1.58-1.9.81s-2.12-1-2.3-1.08-3.16-5-3.16-5l1.45-4.61.18,0Z" style="fill:#4a4a49"/><path d="M140.24,24.43c-.9,0-1.36,2.21-1.31,3.48a5.8,5.8,0,0,0,2.46,3.88c.52.32,3.88,2.1,3.88,2.1s-6.28-4-2.87-9.53c0,0-1.45.07-2.17.07Z" style="fill:#a8a8a7"/><path d="M130.95,58.33l1.85-2.11a13.52,13.52,0,0,0-6.07-1.16c-3.32,0-6,.9-7.7,2.64a8.31,8.31,0,0,0-2.8,5.59,7.54,7.54,0,0,0,3.38,6.07,8.52,8.52,0,0,0,5.38,2,9.23,9.23,0,0,0,6.49-3.38,8.41,8.41,0,0,1-5.65,1.16c-4.15-.59-6.49-2.8-7.23-6.23h12.45s3.48.21,5-2.53a5.29,5.29,0,0,1-3.27.84h-14.2a5.58,5.58,0,0,1,1.85-3.54c1.64-1.27,5.44-1.79,10.55.69Z" style="fill:#1d1d1b"/><path d="M184.24,56.81a11.37,11.37,0,0,1,5.43-1.74c2.8,0,4.64,2.8,4.64,4.7s-.53,3.69-4.54,6.28a31.08,31.08,0,0,0,4.33,2.16c2.37.95,4.27,1.27,6.65.05,0,0-2.43,2.59-5.49,2.59a11.5,11.5,0,0,1-3.9-1c-1.32-.58-6.18-3.06-6.18-3.06A12.53,12.53,0,0,0,189,65.35c1.21-.9,2.27-1.85,2.27-3.75s-1.85-4.8-4.17-4.8-2.9,1.42-2.9,1.42V56.81Z" style="fill:#1d1d1b"/><path d="M67.89,56.06,67.73,55a10.13,10.13,0,0,0-4.06,2.48A8.81,8.81,0,0,0,61,63.6c0,2.48,1.69,7,6.91,7a11,11,0,0,0,8.13-3.54A10.32,10.32,0,0,0,78.55,61c0-3.38-2.37-6.7-7.18-6.7a12.37,12.37,0,0,0-5.07,1.32l.16.79a7.54,7.54,0,0,1,5.28.21c2.48,1.21,4,3.85,4,7.23s-2.16,4.8-4.49,4.8A7.28,7.28,0,0,1,64.09,63c-.79-3.43,1.27-7,3.8-7Z" style="fill:#1d1d1b"/><path d="M79,57.42l3.38-2.32S84,53.69,84,55.52V72.76l-2.74,2V59.46a2,2,0,0,0-2.25-2Z" style="fill:#1d1d1b"/><path d="M83.67,56.22a11.37,11.37,0,0,1,5.44-1.74c2.8,0,4.64,2.8,4.64,4.7s-.53,3.69-4.54,6.28a31.07,31.07,0,0,0,4.33,2.16c2.37.95,4.27,1.27,6.65.05,0,0-2.43,2.59-5.49,2.59a11.51,11.51,0,0,1-3.91-1c-1.32-.58-6.17-3.06-6.17-3.06a12.53,12.53,0,0,0,3.85-1.42c1.21-.9,2.27-1.85,2.27-3.75s-1.85-4.8-4.17-4.8-2.9,1.42-2.9,1.42V56.22Z" style="fill:#1d1d1b"/><path d="M132.09,56.74l2.74-2a1.22,1.22,0,0,1,1.58.11,82.68,82.68,0,0,1,8.44,12.82c.26.47.37.42.74,0l2.8-3.17.37.48-5.49,6.39A78.44,78.44,0,0,0,139,63.08a41.83,41.83,0,0,0-4.49-6.23,1.27,1.27,0,0,0-1.32-.26c-.84.26-1.11.16-1.11.16Z" style="fill:#1d1d1b"/><path d="M154.28,67.79c-.37.42-.47.47-.74,0A82.69,82.69,0,0,0,145.1,55a1.22,1.22,0,0,0-1.58-.11l-2.74,2s.26.11,1.11-.16a1.27,1.27,0,0,1,1.32.26,41.81,41.81,0,0,1,4.49,6.23A78.45,78.45,0,0,1,152,71.48l5.57-5.92S161,62,161.69,59.28s.63-3.75-.53-4.64-3.37.45-4.06.9c-.9.58-1,.95-1,.95s-.11.21.74,0,2.11-.37,2.48.63c.51,1.38.79,3.48-1.21,6.39a20.09,20.09,0,0,1-3.83,4.29Z" style="fill:#1d1d1b"/><path d="M171.25,65.61a39,39,0,0,0-8.34,2.06,28.21,28.21,0,0,0,3.8-6.7,36.05,36.05,0,0,0,5.59,6.7c3.22,2.9,3.75,2.53,4.33,2.53a3,3,0,0,0,2.85-1.9,2.22,2.22,0,0,1-2.69-.26,30.56,30.56,0,0,1-6.33-6.75c-1.9-2.64-4-6.39-4-6.39s-.26-.69-.74-.32-1.42,1.21-1.42,1.21-.32.16-.21.95A16,16,0,0,1,163,64a59.79,59.79,0,0,1-3.54,6s-1.37,1.53.11.63a15.17,15.17,0,0,1,7.07-3c4.49-.84,5.44-.69,5.44-.69l-.84-1.37Z" style="fill:#1d1d1b"/><path d="M178.65,57.54,182,55.21s1.62-1.41,1.62.42V72.87l-2.74,2V59.58a2,2,0,0,0-2.25-2Z" style="fill:#1d1d1b"/><path d="M52.44,49.76l3.38-2.32s1.62-1.41,1.62.42V68.48l-2.74,3V51.8a2,2,0,0,0-2.25-2Z" style="fill:#1d1d1b"/><path d="M43.61,60.28s5.07-3.8,9.29-3.8c2.22,0,3,.95,3,.95v4.22a5.65,5.65,0,0,0-5.38-3.11A9.56,9.56,0,0,0,43.61,61v-.74Z" style="fill:#1d1d1b"/><path d="M110.64,57.8l2.9-1.9a11.12,11.12,0,0,0-6.12-1.64c-3.85,0-7.28,1.79-7.28,4.59s4,3.27,6.17,3.8c4.43,1.11,6,3,6,5.54s-2.68,3.27-4.27,3.27a11.29,11.29,0,0,1-7.49-3.31l-2.16,1.62A10.41,10.41,0,0,0,105.68,73c4.54,0,7-2,8.07-3.75.9-1.48,1.76-5.22-1.14-6.93A16.17,16.17,0,0,0,107,60.17c-2.19-.51-4-1-4-2.53s1.06-2.27,2.69-2.27a7.84,7.84,0,0,1,5,2.43Z" style="fill:#1d1d1b"/><path d="M214.49,52.57l1.85-2.11a13.52,13.52,0,0,0-6.07-1.16c-3.33,0-6,.9-7.71,2.64a9.17,9.17,0,0,0-2.8,5.59c-.34,2.08-.56,8.11,3.38,12.19a6.46,6.46,0,0,0,5.38,2A9.23,9.23,0,0,0,215,68.3a7.16,7.16,0,0,1-5.65,1.16c-9-2-8.06-8-7.44-12.35h9.29s3.48.21,5-2.53a5.29,5.29,0,0,1-3.27.84H202.09a5.58,5.58,0,0,1,1.85-3.54c1.64-1.27,5.44-1.79,10.55.69Z" style="fill:#1d1d1b"/><polygon points="54.8 56.16 56.69 56.16 56.69 62.14 54.8 62.14 54.8 56.16 54.8 56.16 54.8 56.16" style="fill:#1d1d1b"/><path d="M65.81,56a12.69,12.69,0,0,1,3-1.25c1.76-.48,1,1,1,1l-1.23.12a5.47,5.47,0,0,0-2.47.67c-.92.72-.26-.54-.26-.54Z" style="fill:#1d1d1b"/><polygon points="82.62 55.69 83.94 55.69 83.94 58.28 82.62 58.28 82.62 55.69 82.62 55.69 82.62 55.69" style="fill:#1d1d1b"/><polygon points="169.86 65.94 170.63 65.84 170.32 65.46 171.38 65.22 172.79 67.04 172.07 67.28 171.64 66.85 170.7 66.92 169.86 65.94 169.86 65.94 169.86 65.94" style="fill:#1d1d1b"/><polygon points="183.63 56.46 183.54 56.44 183.54 56.08 182.79 56.27 183.37 58.5 183.54 58.19 183.49 57.66 183.63 57.35 183.63 56.46 183.63 56.46 183.63 56.46" style="fill:#1d1d1b"/><g style="clip-path:url(#clip-path-3)"><polygon points="235.9 67.55 217.78 67.55 217.78 50.85 235.9 50.85 235.9 67.55 235.9 67.55" style="fill:none;stroke:#fff;stroke-miterlimit:10"/></g><path d="M219.42,52.47h.16c.19,0,.34-.06.34-.21s-.1-.22-.31-.22l-.19,0v.42Zm0,.83h-.34V51.84a2.93,2.93,0,0,1,.56,0,.91.91,0,0,1,.51.11.41.41,0,0,1,.14.32.37.37,0,0,1-.3.34v0a.43.43,0,0,1,.27.35,1.1,1.1,0,0,0,.11.36H220a1.2,1.2,0,0,1-.12-.36c0-.16-.12-.23-.3-.23h-.16v.59Zm-.9-.76a1.13,1.13,0,0,0,1.14,1.16,1.16,1.16,0,0,0,0-2.33,1.13,1.13,0,0,0-1.13,1.16Zm2.62,0a1.5,1.5,0,1,1-1.49-1.46,1.46,1.46,0,0,1,1.49,1.46Z" style="fill:#1d1d1b"/><polygon points="96.09 88.56 96.09 80.67 97.38 80.67 97.38 88.56 96.09 88.56 96.09 88.56" style="fill:#1d1d1b"/><path d="M103.52,84.34h.9a2,2,0,0,0,1.31-.34,1.21,1.21,0,0,0,.4-1,1.07,1.07,0,0,0-.44-1,2.4,2.4,0,0,0-1.32-.29h-.85v2.58Zm0,1.07v3.15h-1.29V80.67h2.23a3.67,3.67,0,0,1,2.26.57,2.06,2.06,0,0,1,.73,1.73,2.16,2.16,0,0,1-1.53,2.1l2.23,3.49h-1.47l-1.89-3.15Z" style="fill:#1d1d1b"/><polygon points="116.53 88.56 112.06 88.56 112.06 80.67 116.53 80.67 116.53 81.76 113.35 81.76 113.35 83.91 116.33 83.91 116.33 84.98 113.35 84.98 113.35 87.46 116.53 87.46 116.53 88.56 116.53 88.56" style="fill:#1d1d1b"/><polygon points="121 88.56 121 80.67 122.29 80.67 122.29 87.45 125.63 87.45 125.63 88.56 121 88.56 121 88.56" style="fill:#1d1d1b"/><path d="M133.52,85.25l-.74-2.15q-.08-.22-.22-.68c-.09-.31-.16-.54-.2-.68a12.06,12.06,0,0,1-.43,1.45l-.71,2.06Zm1.13,3.3-.79-2.19h-3l-.77,2.19h-1.36l3-7.93h1.4l3,7.93Z" style="fill:#1d1d1b"/><path d="M146.41,88.56h-1.58l-3.88-6.29h0l0,.35q.08,1,.08,1.84v4.1h-1.17V80.67h1.57l3.87,6.26h0c0-.08,0-.38,0-.9s0-.93,0-1.22V80.67h1.18v7.89Z" style="fill:#1d1d1b"/><path d="M156.31,84.58q0-2.83-2.65-2.83h-1.12v5.73h.92q2.85,0,2.85-2.89Zm1.36,0a3.93,3.93,0,0,1-1.09,3,4.36,4.36,0,0,1-3.13,1h-2.21V80.67h2.44a4,4,0,0,1,2.93,1,3.79,3.79,0,0,1,1,2.86Z" style="fill:#1d1d1b"/></svg>