<svg id="Layer_1" data-name="Layer 1" xmlns="http://www.w3.org/2000/svg" viewBox="0 0 196.02 46.47"><title>200x50</title><path d="M2,5.09H6.36V15H17.74V5.09h4.37v25H17.74V18.81H6.36V30.08H2Z" transform="translate(-1.99 -1.58)" style="fill:#0082ca"/><path d="M34.45,20.28,25.08,5.09h5.07l6.61,11.2,6.51-11.2h4.9L38.83,20.28v9.8H34.45Z" transform="translate(-1.99 -1.58)" style="fill:#0082ca"/><path d="M51.79,5.09h11a10.49,10.49,0,0,1,4.34.77,6.86,6.86,0,0,1,2.59,1.93A6.53,6.53,0,0,1,71,10.3a10.73,10.73,0,0,1,.33,2.52,10.51,10.51,0,0,1-.33,2.5,6.53,6.53,0,0,1-1.24,2.5,6.7,6.7,0,0,1-2.59,1.91,10.69,10.69,0,0,1-4.34.75H56.16v9.59H51.79Zm4.37,11.83h6.41a5.67,5.67,0,0,0,1.5-.21A4.3,4.3,0,0,0,65.49,16a3.48,3.48,0,0,0,1-1.26,4.31,4.31,0,0,0,.4-2,5.15,5.15,0,0,0-.35-2,3.26,3.26,0,0,0-.94-1.28,3.37,3.37,0,0,0-1.37-.65,7.44,7.44,0,0,0-1.65-.17H56.16Z" transform="translate(-1.99 -1.58)" style="fill:#0082ca"/><path d="M86.36,4.49a11.62,11.62,0,0,1,5,1,11.22,11.22,0,0,1,3.76,2.83,12.57,12.57,0,0,1,2.36,4.16,15.31,15.31,0,0,1,.82,5,15.41,15.41,0,0,1-.82,5.07,12.56,12.56,0,0,1-2.36,4.16,11,11,0,0,1-3.76,2.82,12.73,12.73,0,0,1-10,0,11,11,0,0,1-3.76-2.82,12.56,12.56,0,0,1-2.36-4.16,15.41,15.41,0,0,1-.82-5.07,15.31,15.31,0,0,1,.82-5,12.57,12.57,0,0,1,2.36-4.16,11.22,11.22,0,0,1,3.76-2.83A11.62,11.62,0,0,1,86.36,4.49Zm0,3.57a7,7,0,0,0-3.45.81A6.77,6.77,0,0,0,80.55,11a9.69,9.69,0,0,0-1.35,3.06,14.26,14.26,0,0,0,0,7,9.69,9.69,0,0,0,1.35,3.06,6.78,6.78,0,0,0,2.36,2.15,7.78,7.78,0,0,0,6.9,0,6.78,6.78,0,0,0,2.36-2.15,9.74,9.74,0,0,0,1.35-3.06,14.19,14.19,0,0,0,0-7A9.73,9.73,0,0,0,92.17,11,6.77,6.77,0,0,0,89.8,8.87,7,7,0,0,0,86.36,8.06Z" transform="translate(-1.99 -1.58)" style="fill:#0082ca"/><path d="M114.12,8.36c2.44,0,5.73.67,7.53,3.87l.15.26,4-1.43-.26-.39c-3.1-4.52-6.2-6.2-11.45-6.2a13.12,13.12,0,1,0,.13,26.25c5,0,7.65-1.43,11.19-6.13l.29-.38-3.77-1.44-.16.23c-1.88,2.72-4.16,3.83-7.9,3.83a9.05,9.05,0,0,1-9-9.33A9.09,9.09,0,0,1,114.12,8.36Z" transform="translate(-1.99 -1.58)" style="fill:#0082ca"/><path d="M149,8.8a10.83,10.83,0,0,0-9.1-4.36,13.23,13.23,0,0,0-13.35,13,13.61,13.61,0,0,0,2.48,8,14.66,14.66,0,0,0,11,5.33,10.8,10.8,0,0,0,9-4.41v3.83h3.87l0-24-4,.11Zm-9,18.13a9.44,9.44,0,0,1-9.43-9.2,9.38,9.38,0,0,1,9.35-9.38A9.18,9.18,0,0,1,149,17.78,9.34,9.34,0,0,1,140,26.93Z" transform="translate(-1.99 -1.58)" style="fill:#0082ca"/><path d="M168.21,5.69h-.37c-3.14.09-5.46,1.12-6.78,3V6.21h-3.86V30.1h4V16.78c0-2.61.23-4,2.38-5.73a6.89,6.89,0,0,1,4.25-1.53l.33,0Z" transform="translate(-1.99 -1.58)" style="fill:#0082ca"/><path d="M193,24.13h0l-.3-.18v0l-2.51-1.29-.31-.19a9.73,9.73,0,0,1-1.45,1.81c-3.16,3.1-8.52,3.4-11.69.72L192.59,9.49l-.27-.26c-2.63-2.55-5-4.21-8.66-4.61a13.17,13.17,0,0,0-14.61,12.89,13.11,13.11,0,0,0,13,13.21,13.29,13.29,0,0,0,9.32-3.88,12.21,12.21,0,0,0,2-2.52Zm-18.82-1.79A9.33,9.33,0,0,1,175.79,11a9.35,9.35,0,0,1,11.27-1.25Z" transform="translate(-1.99 -1.58)" style="fill:#0082ca"/><path d="M195.28,7A2.72,2.72,0,1,1,198,4.3,2.73,2.73,0,0,1,195.28,7Zm0-4.95a2.22,2.22,0,1,0,2.22,2.22A2.22,2.22,0,0,0,195.28,2.08Z" transform="translate(-1.99 -1.58)" style="fill:#0082ca"/><path d="M194.27,2.94a6.42,6.42,0,0,1,.91-.06,1.65,1.65,0,0,1,1,.21.64.64,0,0,1,.28.56.73.73,0,0,1-.54.66h0a.68.68,0,0,1,.4.5,6.52,6.52,0,0,0,.25.75h-.7a2.83,2.83,0,0,1-.21-.62c-.08-.33-.21-.42-.49-.43h-.21V5.57h-.68Zm.68,1.15h.27c.34,0,.54-.15.54-.38s-.19-.37-.5-.37a2.3,2.3,0,0,0-.31,0Z" transform="translate(-1.99 -1.58)" style="fill:#0082ca"/><path d="M43,39.33h1.68a4,4,0,0,1,1.56.24,1.9,1.9,0,0,1,.86.74,2,2,0,0,1,.32,1.1,2,2,0,0,1-.28,1,2,2,0,0,1-.81.76,3.15,3.15,0,0,1,1,.53,2.14,2.14,0,0,1,.56.74,2.2,2.2,0,0,1,.2.93,2.29,2.29,0,0,1-.75,1.73,2.81,2.81,0,0,1-2,.71H43Zm.83.83v2.73h.49a3.78,3.78,0,0,0,1.3-.17,1.39,1.39,0,0,0,.66-.52,1.37,1.37,0,0,0,.24-.79,1.12,1.12,0,0,0-.41-.92,2,2,0,0,0-1.3-.33Zm0,3.58V47h1.06a3.8,3.8,0,0,0,1.37-.18,1.56,1.56,0,0,0,.7-.57,1.49,1.49,0,0,0-.11-1.83,1.9,1.9,0,0,0-1-.58,7.44,7.44,0,0,0-1.51-.1Z" transform="translate(-1.99 -1.58)" style="fill:#6f6f6e"/><path d="M51.44,39.33h1l2.18,3.51,2.14-3.51h1L55,43.77v4.07h-.84V43.77Z" transform="translate(-1.99 -1.58)" style="fill:#6f6f6e"/><path d="M67.13,39.33H68V42.9h4.33V39.33h.85v8.51h-.85V43.73H68v4.11h-.85Z" transform="translate(-1.99 -1.58)" style="fill:#6f6f6e"/><path d="M81.66,39.11A4.42,4.42,0,0,1,84.9,40.4a4.47,4.47,0,0,1-3.17,7.65,4.35,4.35,0,0,1-3.2-1.3,4.26,4.26,0,0,1-1.3-3.14,4.54,4.54,0,0,1,.59-2.27,4.39,4.39,0,0,1,3.84-2.23Zm0,.83a3.64,3.64,0,0,0-3.11,1.82,3.7,3.7,0,0,0-.47,1.86,3.58,3.58,0,0,0,3.59,3.61,3.63,3.63,0,0,0,1.83-.48,3.43,3.43,0,0,0,1.32-1.31,3.68,3.68,0,0,0,.47-1.85,3.6,3.6,0,0,0-.47-1.83,3.53,3.53,0,0,0-1.33-1.31A3.61,3.61,0,0,0,81.7,39.94Z" transform="translate(-1.99 -1.58)" style="fill:#6f6f6e"/><path d="M90.32,39.33H92a10.38,10.38,0,0,1,1.92.12,2.2,2.2,0,0,1,1.23.75,2.12,2.12,0,0,1,.47,1.41,2.27,2.27,0,0,1-.33,1.22,2,2,0,0,1-.93.8,4.32,4.32,0,0,1-1.68.27l3.06,4H94.71l-3.06-4h-.48v4h-.85Zm.85.83v2.89h1.47a3.61,3.61,0,0,0,1.26-.16,1.3,1.3,0,0,0,.64-.52,1.44,1.44,0,0,0,.23-.8,1.37,1.37,0,0,0-.23-.78,1.29,1.29,0,0,0-.61-.5,3.72,3.72,0,0,0-1.25-.15Z" transform="translate(-1.99 -1.58)" style="fill:#6f6f6e"/><path d="M99,46.25l.72-.43q.76,1.41,1.77,1.41a1.68,1.68,0,0,0,.8-.2,1.39,1.39,0,0,0,.57-.54,1.37,1.37,0,0,0,.2-.71,1.44,1.44,0,0,0-.29-.84,6.88,6.88,0,0,0-1.46-1.37,7.49,7.49,0,0,1-1.32-1.16,2.13,2.13,0,0,1-.45-1.3,2,2,0,0,1,.27-1,1.88,1.88,0,0,1,.75-.72,2.17,2.17,0,0,1,1.05-.26,2.24,2.24,0,0,1,1.12.3,3.84,3.84,0,0,1,1.11,1.1l-.69.53a3.3,3.3,0,0,0-.82-.84,1.42,1.42,0,0,0-.74-.2,1.17,1.17,0,0,0-.84.31,1,1,0,0,0-.33.77,1.31,1.31,0,0,0,.12.54,2,2,0,0,0,.42.57c.11.11.48.39,1.1.85a6.19,6.19,0,0,1,1.52,1.45,2.34,2.34,0,0,1,.41,1.28,2.17,2.17,0,0,1-.7,1.61,2.36,2.36,0,0,1-1.71.68,2.5,2.5,0,0,1-1.41-.41A3.8,3.8,0,0,1,99,46.25Z" transform="translate(-1.99 -1.58)" style="fill:#6f6f6e"/><path d="M108.12,39.33H113v.83h-4v2.67h4v.83h-4V47h4v.83h-4.84Z" transform="translate(-1.99 -1.58)" style="fill:#6f6f6e"/><path d="M116.35,39.33h.87L119,45.46l2.44-6.13h.18L124,45.46l1.77-6.13h.87l-2.44,8.51H124L121.5,41.4l-2.57,6.44h-.16Z" transform="translate(-1.99 -1.58)" style="fill:#6f6f6e"/><path d="M133.19,39.33l4,8.51h-.92L134.9,45h-3.67l-1.33,2.8H129l4-8.51Zm-.11,1.81-1.46,3.08h2.91Z" transform="translate(-1.99 -1.58)" style="fill:#6f6f6e"/><path d="M140.89,39.33h1.7a10.38,10.38,0,0,1,1.92.12,2.2,2.2,0,0,1,1.23.75,2.12,2.12,0,0,1,.47,1.41,2.27,2.27,0,0,1-.33,1.22,2,2,0,0,1-.93.8,4.32,4.32,0,0,1-1.68.27l3.06,4h-1.05l-3.06-4h-.48v4h-.85Zm.85.83v2.89h1.47a3.61,3.61,0,0,0,1.26-.16,1.3,1.3,0,0,0,.64-.52,1.44,1.44,0,0,0,.23-.8,1.37,1.37,0,0,0-.23-.78,1.29,1.29,0,0,0-.61-.5,3.72,3.72,0,0,0-1.25-.15Z" transform="translate(-1.99 -1.58)" style="fill:#6f6f6e"/><path d="M150.41,39.33h4.88v.83h-4v2.67h4v.83h-4V47h4v.83h-4.84Z" transform="translate(-1.99 -1.58)" style="fill:#6f6f6e"/></svg>